<svg width="14" height="21" viewBox="0 0 14 21" fill="none" xmlns="http://www.w3.org/2000/svg">
<path d="M11 0.2771H3.00001C2.20436 0.2771 1.4413 0.59317 0.878688 1.15578C0.316078 1.71839 7.88292e-06 2.48145 7.88292e-06 3.2771V19.2771C-0.000691685 19.4533 0.0451825 19.6266 0.132986 19.7794C0.220789 19.9321 0.347404 20.059 0.500008 20.1471C0.652027 20.2349 0.824471 20.2811 1.00001 20.2811C1.17554 20.2811 1.34799 20.2349 1.50001 20.1471L7.00001 16.9671L12.5 20.1471C12.6524 20.2335 12.8248 20.2783 13 20.2771C13.1752 20.2783 13.3476 20.2335 13.5 20.1471C13.6526 20.059 13.7792 19.9321 13.867 19.7794C13.9548 19.6266 14.0007 19.4533 14 19.2771V3.2771C14 2.48145 13.6839 1.71839 13.1213 1.15578C12.5587 0.59317 11.7957 0.2771 11 0.2771ZM12 17.5471L7.50001 14.9471C7.34799 14.8593 7.17554 14.8131 7.00001 14.8131C6.82447 14.8131 6.65203 14.8593 6.50001 14.9471L2.00001 17.5471V3.2771C2.00001 3.01188 2.10536 2.75753 2.2929 2.56999C2.48044 2.38246 2.73479 2.2771 3.00001 2.2771H11C11.2652 2.2771 11.5196 2.38246 11.7071 2.56999C11.8947 2.75753 12 3.01188 12 3.2771V17.5471Z" fill="#4D4D4D"/>
</svg>
