<svg width="12" height="12" viewBox="0 0 12 12" fill="none" xmlns="http://www.w3.org/2000/svg">
<path d="M11.6641 10.8359L9.49994 8.68923C10.34 7.64181 10.7468 6.31232 10.6368 4.97416C10.5267 3.63599 9.90809 2.39086 8.90816 1.49478C7.90824 0.598695 6.603 0.119781 5.26082 0.156507C3.91863 0.193234 2.64153 0.742811 1.69211 1.69223C0.742689 2.64165 0.193112 3.91876 0.156385 5.26094C0.119658 6.60312 0.598573 7.90837 1.49465 8.90829C2.39073 9.90821 3.63587 10.5268 4.97404 10.6369C6.3122 10.7469 7.64168 10.3401 8.68911 9.50007L10.8358 11.6467C10.89 11.7014 10.9545 11.7448 11.0256 11.7744C11.0967 11.804 11.1729 11.8193 11.2499 11.8193C11.327 11.8193 11.4032 11.804 11.4743 11.7744C11.5454 11.7448 11.6099 11.7014 11.6641 11.6467C11.7693 11.538 11.828 11.3926 11.828 11.2413C11.828 11.09 11.7693 10.9447 11.6641 10.8359ZM5.41661 9.50007C4.609 9.50007 3.81953 9.26058 3.14803 8.8119C2.47653 8.36322 1.95316 7.72549 1.6441 6.97936C1.33504 6.23323 1.25418 5.4122 1.41174 4.62011C1.56929 3.82803 1.95819 3.10045 2.52926 2.52938C3.10032 1.95832 3.8279 1.56942 4.61999 1.41186C5.41208 1.2543 6.2331 1.33517 6.97924 1.64422C7.72537 1.95328 8.3631 2.47665 8.81178 3.14815C9.26046 3.81966 9.49994 4.60913 9.49994 5.41673C9.49994 6.4997 9.06974 7.53831 8.30396 8.30409C7.53819 9.06986 6.49958 9.50007 5.41661 9.50007Z" fill="#B3B3B3"/>
</svg>
